<svg width="50" height="50" viewBox="0 0 50 50" fill="none" xmlns="http://www.w3.org/2000/svg">
<path d="M45.3125 17.1875L50 21.875H35.9375L28.125 14.0625V0L32.8125 4.6875V12.5L37.5 17.1875H45.3125Z" fill="white"/>
<path d="M45.3125 32.8125L50 28.125H35.9375L28.125 35.9375V50L32.8125 45.3125V37.5L37.5 32.8125H45.3125Z" fill="white"/>
<path d="M0 21.875L4.6875 17.1875H12.5L17.1875 12.5V4.6875L21.875 0V14.0625L14.0625 21.875H0Z" fill="white"/>
<path d="M0 28.125L4.6875 32.8125H12.5L17.1875 37.5V45.3125L21.875 50V35.9375L14.0625 28.125H0Z" fill="white"/>
<path d="M18.75 25L25 31.25L31.25 25L25 18.75L18.75 25Z" fill="#FF5C00"/>
<path d="M4.6875 42.1875L13.2812 33.5938L12.5 32.8125H7.8125L4.6875 35.9375V42.1875Z" fill="#292929"/>
<path d="M17.1875 37.5L16.4062 36.7188L7.8125 45.3125H14.0625L17.1875 42.1875V37.5Z" fill="#292929"/>
<path d="M4.6875 7.8125L13.2812 16.4062L12.5 17.1875H7.8125L4.6875 14.0625V7.8125Z" fill="#292929"/>
<path d="M17.1875 12.5L16.4062 13.2812L7.8125 4.6875H14.0625L17.1875 7.8125V12.5Z" fill="#292929"/>
<path d="M45.3125 7.8125L36.7188 16.4062L37.5 17.1875H42.1875L45.3125 14.0625V7.8125Z" fill="#292929"/>
<path d="M32.8125 12.5L33.5938 13.2812L42.1875 4.6875H35.9375L32.8125 7.8125V12.5Z" fill="#292929"/>
<path d="M36.7188 33.5938L45.3125 42.1875V35.9375L42.1875 32.8125H37.5L36.7188 33.5938Z" fill="#292929"/>
<path d="M33.5938 36.7188L32.8125 37.5V42.1875L35.9375 45.3125H42.1875L33.5938 36.7188Z" fill="#292929"/>
</svg>
